<svg id="Layer_1" data-name="Layer 1" xmlns="http://www.w3.org/2000/svg" viewBox="0 0 327.88 45"><defs><style>.cls-1{fill:#fff;}.cls-2{fill:#323234;}</style></defs><path class="cls-1" d="M77.65,17.92,79.73,27c.29,1.24.46,2.28.65,3.26h.07c.16-.88.42-2.09.68-3.23L83,17.92h2.47L82.89,28.05c-1,4-2,7.79-3.91,10.16a8.72,8.72,0,0,1-2.83,2.41l-.91-2.15a7.72,7.72,0,0,0,2.21-2,9.73,9.73,0,0,0,1.43-2.64,2.24,2.24,0,0,0,.17-.78,1.71,1.71,0,0,0-.07-.59L75,17.92Z" transform="translate(-1.06)"/><path class="cls-1" d="M87.61,22c0-1.86-.1-2.81-.13-4.08h2.18l.13,1.89h.07a4,4,0,0,1,3.61-2.15c2.19,0,3.81,1.63,3.81,5.44V33.69h-2.5V23.53c0-1.86-.36-3.75-2.18-3.75-1,0-2.06.88-2.38,2.57a8.28,8.28,0,0,0-.1,1.4v9.94H87.61Z" transform="translate(-1.06)"/><path class="cls-1" d="M107,33.69,106.86,32h-.1A3.54,3.54,0,0,1,103.64,34c-2.12,0-3.75-1.79-3.75-4.5,0-3.94,3.16-5.7,6.71-5.73v-.49c0-2.11-.52-3.58-2.51-3.58a4.74,4.74,0,0,0-2.6.82l-.56-1.76a6.77,6.77,0,0,1,3.68-1.05c3.16,0,4.53,2.09,4.53,5.64v6.8a25.5,25.5,0,0,0,.16,3.59Zm-.35-8.14c-1.31,0-4.34.22-4.34,3.64,0,2,1,2.8,1.93,2.8,1.1,0,2-.81,2.34-2.37a3.91,3.91,0,0,0,.07-.88Z" transform="translate(-1.06)"/><path class="cls-1" d="M112.66,22c0-1.86-.1-2.81-.13-4.08h2.18l.13,2h.06a4,4,0,0,1,3.55-2.22,3.28,3.28,0,0,1,3.29,2.41h.07a5,5,0,0,1,1.56-1.79,3.84,3.84,0,0,1,2.18-.62c2.12,0,3.78,1.57,3.78,5.57V33.69h-2.47V23.82c0-2.05-.3-4-2.22-4-1,0-2,.88-2.31,2.35a10.24,10.24,0,0,0-.1,1.43V33.69h-2.47V23.36c0-1.76-.33-3.58-2.18-3.58-1,0-2.06.88-2.35,2.54a9.69,9.69,0,0,0-.1,1.37v10h-2.47Z" transform="translate(-1.06)"/><path class="cls-1" d="M132.43,31.08a5,5,0,0,0,2.54.82,2.13,2.13,0,0,0,2.31-2.28c0-1.21-.42-2-2-3.1-2-1.33-3.16-2.67-3.16-4.49a4.24,4.24,0,0,1,4.33-4.37,5.47,5.47,0,0,1,2.84.82l-.69,1.89a3.7,3.7,0,0,0-2.08-.69,1.93,1.93,0,0,0-2.05,2c0,1.07.39,1.66,2,2.74,1.82,1.17,3.26,2.6,3.26,4.78a4.4,4.4,0,0,1-4.73,4.69,5.39,5.39,0,0,1-3.12-.91Z" transform="translate(-1.06)"/><path class="cls-1" d="M151.93,25.81c0,6.09-2.83,8.14-5.24,8.14-2.83,0-5.11-2.57-5.11-8.11,0-5.77,2.57-8.18,5.27-8.18S151.93,20.3,151.93,25.81Zm-7.84,0c0,2.6.45,6.15,2.73,6.15s2.57-3.71,2.57-6.15-.42-6.13-2.63-6.13S144.09,23.4,144.09,25.81Z" transform="translate(-1.06)"/><path class="cls-1" d="M155.26,33.69V19.85h-2V17.92h2V17a7,7,0,0,1,1.4-4.75,4.26,4.26,0,0,1,3.16-1.34,4.38,4.38,0,0,1,2,.39l-.42,2A3.12,3.12,0,0,0,160,13c-1.79,0-2.22,1.93-2.22,4v1h2.87v1.93h-2.87V33.69Z" transform="translate(-1.06)"/><path class="cls-1" d="M165.39,13.76v4.16h3v1.93h-3v9.34c0,2,.74,2.61,1.66,2.61a4.37,4.37,0,0,0,1-.1l.09,1.92a5.27,5.27,0,0,1-1.85.26,3.21,3.21,0,0,1-2.48-.94c-.62-.72-.94-1.79-.94-4V19.85H161V17.92h1.92V14.47Z" transform="translate(-1.06)"/><path class="cls-1" d="M175.94,12.06a15.28,15.28,0,0,1,3.68-.42,6.84,6.84,0,0,1,4.85,1.53,5,5,0,0,1,1.43,3.75,5.07,5.07,0,0,1-3.38,4.88v.07a5.4,5.4,0,0,1,4.07,5.6A6.29,6.29,0,0,1,185,31.83c-1.23,1.4-3.29,2-5.79,2a17.7,17.7,0,0,1-3.29-.23Zm2.5,9h1.14a3.77,3.77,0,0,0,3.82-3.87c0-2-1-3.59-3.62-3.59a4.4,4.4,0,0,0-1.34.17Zm0,10.65a5.62,5.62,0,0,0,1.27.13,4,4,0,0,0,4.3-4.36,4.25,4.25,0,0,0-4.46-4.5h-1.11Z" transform="translate(-1.06)"/><path class="cls-1" d="M195.71,33.69,195.54,32h-.1A3.54,3.54,0,0,1,192.32,34c-2.12,0-3.75-1.79-3.75-4.5,0-3.94,3.16-5.7,6.71-5.73v-.49c0-2.11-.52-3.58-2.51-3.58a4.74,4.74,0,0,0-2.6.82l-.55-1.76a6.74,6.74,0,0,1,3.68-1.05c3.15,0,4.52,2.09,4.52,5.64v6.8a24,24,0,0,0,.17,3.59Zm-.36-8.14c-1.31,0-4.33.22-4.33,3.64,0,2,1,2.8,1.92,2.8,1.1,0,2.05-.81,2.34-2.37a3.91,3.91,0,0,0,.07-.88Z" transform="translate(-1.06)"/><path class="cls-1" d="M201.31,22c0-1.34-.1-2.9-.13-4.08h2.24l.13,2.48h.07a3.84,3.84,0,0,1,3.32-2.74c.2,0,.36,0,.52,0v2.57a2.8,2.8,0,0,0-.52,0c-1.59,0-2.77,1.46-3,3.29a10.33,10.33,0,0,0-.09,1.43v8.73h-2.51Z" transform="translate(-1.06)"/><path class="cls-1" d="M216.65,33.3a5.51,5.51,0,0,1-2.61.58c-3.45,0-5.76-2.77-5.76-8,0-4.52,2.28-8.2,6.22-8.2a4.92,4.92,0,0,1,2.21.49l-.49,2a3.93,3.93,0,0,0-1.79-.43c-2.51,0-3.65,3-3.65,6.09,0,3.68,1.41,5.9,3.72,5.9a4.27,4.27,0,0,0,1.82-.42Z" transform="translate(-1.06)"/><path class="cls-1" d="M228.27,25.81c0,6.09-2.83,8.14-5.24,8.14-2.83,0-5.11-2.57-5.11-8.11,0-5.77,2.57-8.18,5.27-8.18S228.27,20.3,228.27,25.81Zm-7.84,0c0,2.6.45,6.15,2.73,6.15s2.57-3.71,2.57-6.15-.42-6.13-2.63-6.13S220.43,23.4,220.43,25.81Z" transform="translate(-1.06)"/><path class="cls-1" d="M240.55,11.15V29.91c0,1.07.1,2.87.13,3.78h-2.15l-.16-2h-.1A3.63,3.63,0,0,1,235,34c-2.67,0-4.59-2.9-4.59-8.08,0-5.6,2.31-8.21,4.76-8.21A3.06,3.06,0,0,1,238,19.55h.07v-8.4Zm-2.47,12.77a9.22,9.22,0,0,0,0-1c-.16-1.63-1.14-3.07-2.34-3.07-2.08,0-2.8,2.9-2.8,6.06,0,3.32.85,6,2.67,6,.78,0,1.86-.42,2.41-2.7a5.24,5.24,0,0,0,.1-1Z" transform="translate(-1.06)"/><path class="cls-1" d="M245.83,26c0,4.82,1.92,5.87,3.74,5.87a5.29,5.29,0,0,0,2.61-.62l.39,1.85a7.6,7.6,0,0,1-3.45.75c-3.78,0-5.73-3.09-5.73-7.91,0-5.11,2.14-8.31,5.3-8.31s4.5,3.39,4.5,7c0,.59,0,1,0,1.4Zm4.95-1.85c.06-3.16-1.14-4.56-2.35-4.56-1.63,0-2.47,2.41-2.57,4.56Z" transform="translate(-1.06)"/><path class="cls-1" d="M261.2,12.06a14.49,14.49,0,0,1,3.62-.42c2.18,0,3.81.46,4.95,1.56a6,6,0,0,1,1.53,4.3,5.74,5.74,0,0,1-3.52,5.64v.06c1.63.49,2.47,2.05,3,4.92A31.48,31.48,0,0,0,272,33.69h-2.54a27.92,27.92,0,0,1-1.17-5.44c-.49-3-1.44-4.14-3.58-4.14h-1v9.58H261.2Zm2.51,10.13h1c2.41,0,4-1.76,4-4.4s-1.05-4.1-3.75-4.13a4.87,4.87,0,0,0-1.3.13Z" transform="translate(-1.06)"/><path class="cls-1" d="M276.08,26c0,4.82,1.93,5.87,3.75,5.87a5.25,5.25,0,0,0,2.6-.62l.4,1.85a7.61,7.61,0,0,1-3.46.75c-3.77,0-5.73-3.09-5.73-7.91,0-5.11,2.15-8.31,5.31-8.31s4.49,3.39,4.49,7c0,.59,0,1,0,1.4ZM281,24.18c.07-3.16-1.14-4.56-2.34-4.56-1.63,0-2.48,2.41-2.57,4.56Z" transform="translate(-1.06)"/><path class="cls-1" d="M292.37,33.69,292.21,32h-.1A3.55,3.55,0,0,1,289,34c-2.12,0-3.74-1.79-3.74-4.5,0-3.94,3.15-5.7,6.7-5.73v-.49c0-2.11-.52-3.58-2.5-3.58a4.75,4.75,0,0,0-2.61.82l-.55-1.76A6.74,6.74,0,0,1,290,17.66c3.16,0,4.52,2.09,4.52,5.64v6.8a24,24,0,0,0,.17,3.59ZM292,25.55c-1.3,0-4.33.22-4.33,3.64,0,2,1,2.8,1.92,2.8,1.11,0,2-.81,2.34-2.37a3.91,3.91,0,0,0,.07-.88Z" transform="translate(-1.06)"/><path class="cls-1" d="M307.48,11.15V29.91c0,1.07.1,2.87.13,3.78h-2.15l-.16-2h-.1A3.63,3.63,0,0,1,301.91,34c-2.67,0-4.59-2.9-4.59-8.08,0-5.6,2.31-8.21,4.75-8.21a3.07,3.07,0,0,1,2.87,1.89H305v-8.4ZM305,23.92c0-.33,0-.69,0-1-.16-1.63-1.14-3.07-2.34-3.07-2.09,0-2.8,2.9-2.8,6.06,0,3.32.84,6,2.67,6,.78,0,1.85-.42,2.41-2.7a5.3,5.3,0,0,0,.09-1Z" transform="translate(-1.06)"/><path class="cls-1" d="M312.76,26c0,4.82,1.92,5.87,3.74,5.87a5.29,5.29,0,0,0,2.61-.62l.39,1.85a7.6,7.6,0,0,1-3.45.75c-3.78,0-5.74-3.09-5.74-7.91,0-5.11,2.15-8.31,5.31-8.31s4.5,3.39,4.5,7c0,.59,0,1,0,1.4Zm4.95-1.85c.06-3.16-1.14-4.56-2.35-4.56-1.63,0-2.47,2.41-2.57,4.56Z" transform="translate(-1.06)"/><path class="cls-1" d="M322.79,22c0-1.34-.1-2.9-.13-4.08h2.24L325,20.4h.07a3.84,3.84,0,0,1,3.32-2.74c.2,0,.36,0,.52,0v2.57a2.8,2.8,0,0,0-.52,0c-1.59,0-2.77,1.46-3,3.29a10.24,10.24,0,0,0-.1,1.43v8.73h-2.5Z" transform="translate(-1.06)"/><path class="cls-1" d="M60,33.86V10.7h6c4.35,0,6.46,2.16,6.46,6.62v9.92c0,4.45-2.11,6.62-6.46,6.62Zm2.3-2.28h3.75c2.53,0,4.16-1.54,4.16-3.93V16.9c0-2.38-1.63-3.92-4.16-3.92H62.32Z" transform="translate(-1.06)"/><rect class="cls-1" width="45" height="45" rx="6.5"/><path class="cls-2" d="M15.07,13h-5V31.85h5c3.39,0,5.34-1.6,5.34-5.46V18.45C20.41,14.58,18.46,13,15.07,13Zm3.17,13.73a2.88,2.88,0,0,1-3.17,3H12.24V15.14h2.83a2.88,2.88,0,0,1,3.17,3Z" transform="translate(-1.06)"/><path class="cls-2" d="M27.18,19.78a2.9,2.9,0,0,0-2.59,1.49v-5a3.3,3.3,0,0,1-1.31-.42,3.39,3.39,0,0,1-1-.83h0v1.37h0V31.82h2.31V30.36c.56,1.1,1.06,1.65,2.15,1.65,2,0,3.74-2.14,3.74-6.34C30.48,22.17,29.26,19.78,27.18,19.78ZM26.13,29.87c-.44,0-1-.26-1.38-1.5a6.72,6.72,0,0,1-.16-1.11v-2.6a8.09,8.09,0,0,1,.16-1.13c.14-.78.7-1.53,1.38-1.53,1.24,0,2.06,1.81,2.06,4C28.19,28.38,27.39,29.87,26.13,29.87Z" transform="translate(-1.06)"/><path class="cls-2" d="M36.51,19.89a3,3,0,0,0-2.56,2h0V20.08h0a3.42,3.42,0,0,1-.84.59,3.76,3.76,0,0,1-1.37.42V31.85h2.21V25.64A5.12,5.12,0,0,1,34,24.5a2.72,2.72,0,0,1,2.49-2,1.74,1.74,0,0,1,.54.05V19.94A2.47,2.47,0,0,0,36.51,19.89Z" transform="translate(-1.06)"/></svg>