<svg xmlns="http://www.w3.org/2000/svg" width="24" height="24" viewBox="0 0 24 24">
  <path
    d="M10.661,10A1.664,1.664,0,1,1,9,11.667v-.006A1.665,1.665,0,0,1,10.661,10Zm0,4.164A1.641,1.641,0,1,1,9,15.805,1.642,1.642,0,0,1,10.661,14.164Zm0,4.119A1.654,1.654,0,1,1,9,19.937,1.654,1.654,0,0,1,10.661,18.283Zm0,4.145A1.654,1.654,0,1,1,9,24.082,1.655,1.655,0,0,1,10.661,22.428Zm0,4.125A1.664,1.664,0,1,1,9,28.221v-.006A1.661,1.661,0,0,1,10.661,26.553Zm0,4.119A1.664,1.664,0,1,1,9,32.339H9A1.667,1.667,0,0,1,10.661,30.672Zm20.679,0a1.664,1.664,0,1,1-1.667,1.667,1.664,1.664,0,0,1,1.667-1.667Zm-4.145,0a1.664,1.664,0,1,1-1.641,1.686v-.019a1.653,1.653,0,0,1,1.638-1.667Zm-4.132,0a1.664,1.664,0,1,1-1.654,1.674v-.006A1.663,1.663,0,0,1,23.063,30.672Zm-4.145,0a1.664,1.664,0,1,1-1.654,1.674v-.006a1.66,1.66,0,0,1,1.653-1.667Zm-4.132,0a1.664,1.664,0,1,1-1.661,1.667h0a1.661,1.661,0,0,1,1.655-1.667Zm0-16.508a1.657,1.657,0,1,1-.008,0Zm0,8.264a1.657,1.657,0,1,1-.006,0ZM18.918,10a1.664,1.664,0,1,1-1.654,1.674v-.013A1.658,1.658,0,0,1,18.918,10Zm0,4.164a1.641,1.641,0,1,1-1.654,1.641,1.641,1.641,0,0,1,1.654-1.641Zm0,8.264a1.654,1.654,0,1,1-1.654,1.654h0a1.653,1.653,0,0,1,1.651-1.654Zm0,4.125a1.664,1.664,0,1,1-1.654,1.674v-.013a1.654,1.654,0,0,1,1.648-1.661Zm4.145-8.27a1.654,1.654,0,1,1-1.654,1.654h0A1.656,1.656,0,0,1,23.063,18.283Zm0,4.145a1.654,1.654,0,1,1-1.654,1.654h0A1.656,1.656,0,0,1,23.063,22.428Zm4.132-8.264a1.641,1.641,0,1,1-1.641,1.641h0a1.639,1.639,0,0,1,1.637-1.641Zm0,4.119a1.654,1.654,0,1,1-1.641,1.667v-.013a1.645,1.645,0,0,1,1.637-1.654Zm0,8.27a1.664,1.664,0,1,1-1.641,1.686v-.026a1.647,1.647,0,0,1,1.633-1.661ZM31.339,10a1.664,1.664,0,1,1-1.667,1.661A1.664,1.664,0,0,1,31.339,10Zm0,12.428a1.664,1.664,0,1,1-.005,0Z"
    transform="translate(-9 -10)"
    fill="#606060"
    fill-rule="evenodd"
  />
</svg>
