<?xml version="1.0" encoding="utf-8"?>
<!-- Generator: Adobe Illustrator 26.2.1, SVG Export Plug-In . SVG Version: 6.00 Build 0)  -->
<svg version="1.1" id="Layer_1" xmlns="http://www.w3.org/2000/svg" xmlns:xlink="http://www.w3.org/1999/xlink" x="0px" y="0px"
	 viewBox="0 0 28 18.9" style="enable-background:new 0 0 28 18.9;" xml:space="preserve">
<style type="text/css">
	.st0{fill:#FEA543;}
</style>
<g>
	<path class="st0" d="M25.8,0h-6.8c-0.6,0-1,0.4-1,1s0.4,1,1,1h6.8C25.9,2,26,2.1,26,2.1v4.5c0,0.6,0.4,1,1,1s1-0.4,1-1V2.1
		C28,1,27,0,25.8,0z"/>
	<path class="st0" d="M1,7.6c0.6,0,1-0.4,1-1V2.1C2,2.1,2.1,2,2.1,2h6.8c0.6,0,1-0.4,1-1s-0.4-1-1-1H2.1C1,0,0,1,0,2.1v4.5
		C0,7.2,0.4,7.6,1,7.6z"/>
	<path class="st0" d="M27,11.3c-0.6,0-1,0.4-1,1v4.5c0,0.1-0.1,0.1-0.1,0.1h-6.8c-0.6,0-1,0.4-1,1s0.4,1,1,1h6.8
		c1.2,0,2.1-1,2.1-2.1v-4.5C28,11.7,27.5,11.3,27,11.3z"/>
	<path class="st0" d="M8.9,16.9H2.1c-0.1,0-0.1-0.1-0.1-0.1v-4.5c0-0.6-0.4-1-1-1s-1,0.4-1,1v4.5c0,1.2,1,2.1,2.1,2.1h6.8
		c0.6,0,1-0.4,1-1S9.5,16.9,8.9,16.9z"/>
	<path class="st0" d="M4.5,6.5v5.9c0,1.1,0.9,2,2,2h14.9c1.1,0,2-0.9,2-2V6.5c0-1.1-0.9-2-2-2H6.5C5.4,4.5,4.5,5.4,4.5,6.5z
		 M21.5,12.4H6.5l0-5.9h0h14.9V12.4z"/>
</g>
</svg>
