<svg xmlns="http://www.w3.org/2000/svg" width="28" height="28" viewBox="0 0 28 28">
  <path id="icon-web-dpm" d="M10.937,10A1.941,1.941,0,1,1,9,11.945v-.008A1.943,1.943,0,0,1,10.937,10Zm0,4.858A1.914,1.914,0,1,1,9,16.773,1.915,1.915,0,0,1,10.937,14.858Zm0,4.805A1.93,1.93,0,1,1,9,21.593,1.93,1.93,0,0,1,10.937,19.664Zm0,4.836A1.93,1.93,0,1,1,9,26.429,1.931,1.931,0,0,1,10.937,24.5Zm0,4.813A1.941,1.941,0,1,1,9,31.257V31.25A1.938,1.938,0,0,1,10.937,29.312Zm0,4.805A1.941,1.941,0,1,1,9,36.062H9A1.945,1.945,0,0,1,10.937,34.118Zm24.125,0a1.941,1.941,0,1,1-1.945,1.945,1.941,1.941,0,0,1,1.945-1.945Zm-4.836,0a1.941,1.941,0,1,1-1.915,1.968v-.023a1.928,1.928,0,0,1,1.912-1.945Zm-4.82,0a1.941,1.941,0,1,1-1.93,1.952v-.008A1.941,1.941,0,0,1,25.406,34.118Zm-4.836,0a1.941,1.941,0,1,1-1.93,1.952v-.008a1.937,1.937,0,0,1,1.928-1.945Zm-4.82,0a1.941,1.941,0,1,1-1.937,1.945h0a1.938,1.938,0,0,1,1.931-1.945Zm0-19.259a1.933,1.933,0,1,1-.009,0Zm0,9.641a1.933,1.933,0,1,1-.008,0ZM20.571,10a1.941,1.941,0,1,1-1.93,1.952v-.015A1.934,1.934,0,0,1,20.571,10Zm0,4.858a1.915,1.915,0,1,1-1.93,1.915,1.915,1.915,0,0,1,1.93-1.915Zm0,9.641a1.93,1.93,0,1,1-1.93,1.93h0a1.928,1.928,0,0,1,1.927-1.93Zm0,4.813a1.941,1.941,0,1,1-1.93,1.952V31.25a1.93,1.93,0,0,1,1.922-1.937Zm4.836-9.649a1.93,1.93,0,1,1-1.93,1.93h0A1.932,1.932,0,0,1,25.406,19.664Zm0,4.836a1.93,1.93,0,1,1-1.93,1.93h0A1.932,1.932,0,0,1,25.406,24.5Zm4.82-9.641a1.915,1.915,0,1,1-1.915,1.915h0a1.912,1.912,0,0,1,1.91-1.915Zm0,4.805a1.93,1.93,0,1,1-1.915,1.945v-.015a1.92,1.92,0,0,1,1.91-1.93Zm0,9.649a1.941,1.941,0,1,1-1.915,1.968v-.03a1.922,1.922,0,0,1,1.905-1.937ZM35.062,10a1.941,1.941,0,1,1-1.945,1.937A1.941,1.941,0,0,1,35.062,10Zm0,14.5a1.942,1.942,0,1,1-.006,0Z" transform="translate(-9 -10)" fill="#fea543" fill-rule="evenodd"/>
</svg>
