<?xml version="1.0" encoding="utf-8"?>
<!-- Generator: Adobe Illustrator 26.2.1, SVG Export Plug-In . SVG Version: 6.00 Build 0)  -->
<svg version="1.1" id="Layer_1" xmlns="http://www.w3.org/2000/svg" xmlns:xlink="http://www.w3.org/1999/xlink" x="0px" y="0px"
	 viewBox="0 0 28 28" style="enable-background:new 0 0 28 28;" xml:space="preserve">
<style type="text/css">
	.st0{fill:#FEA543;}
</style>
<g>
	<path class="st0" d="M6.1,0C2.7,0,0,2.7,0,6.1s2.7,6.1,6.1,6.1s6.1-2.7,6.1-6.1S9.4,0,6.1,0z M6.1,10.2C3.8,10.2,2,8.3,2,6.1
		S3.8,2,6.1,2s4.1,1.8,4.1,4.1S8.3,10.2,6.1,10.2z"/>
	<path class="st0" d="M21.9,12.2c3.4,0,6.1-2.7,6.1-6.1S25.3,0,21.9,0s-6.1,2.7-6.1,6.1S18.6,12.2,21.9,12.2z M21.9,2
		C24.2,2,26,3.8,26,6.1s-1.8,4.1-4.1,4.1s-4.1-1.8-4.1-4.1S19.7,2,21.9,2z"/>
	<path class="st0" d="M6.1,15.8c-3.4,0-6.1,2.7-6.1,6.1S2.7,28,6.1,28s6.1-2.7,6.1-6.1S9.4,15.8,6.1,15.8z M6.1,26
		C3.8,26,2,24.2,2,21.9s1.8-4.1,4.1-4.1s4.1,1.8,4.1,4.1S8.3,26,6.1,26z"/>
	<path class="st0" d="M21.9,15.8c-3.4,0-6.1,2.7-6.1,6.1s2.7,6.1,6.1,6.1s6.1-2.7,6.1-6.1S25.3,15.8,21.9,15.8z M21.9,26
		c-2.3,0-4.1-1.8-4.1-4.1s1.8-4.1,4.1-4.1s4.1,1.8,4.1,4.1S24.2,26,21.9,26z"/>
</g>
</svg>
