<?xml version="1.0" encoding="utf-8"?>
<!-- Generator: Adobe Illustrator 26.2.1, SVG Export Plug-In . SVG Version: 6.00 Build 0)  -->
<svg version="1.1" id="Layer_1" xmlns="http://www.w3.org/2000/svg" xmlns:xlink="http://www.w3.org/1999/xlink" x="0px" y="0px"
	 viewBox="0 0 50.9 25.4" style="enable-background:new 0 0 50.9 25.4;" xml:space="preserve">
<style type="text/css">
	.st0{fill:#FEA543;}
</style>
<path class="st0" d="M46.7,8.5h-7.9l-3.4-6.8C34.9,0.7,33.8,0,32.6,0h-9.3c0,0,0,0,0,0s0,0,0,0h-8.2c-1.2,0-2.3,0.7-2.8,1.7L8.9,8.5
	H6.3c-2.3,0-4.2,1.9-4.2,4.2v6.4H1c-0.6,0-1,0.4-1,1s0.4,1,1,1h5.5c0.2,1,0.7,2,1.4,2.7c1,1,2.3,1.5,3.7,1.5c2.6,0,4.7-1.8,5.2-4.3
	h19.5c0.2,1,0.7,2,1.4,2.7c1,1,2.3,1.5,3.7,1.5c2.6,0,4.7-1.8,5.2-4.2h1.2c1.7,0,3.1-1.4,3.1-3.1v-5.3C50.9,10.4,49,8.5,46.7,8.5z
	 M33.7,2.6l2.9,5.9H24.3V2h8.3C33.1,2,33.5,2.2,33.7,2.6z M14.1,2.6c0.2-0.4,0.6-0.6,1-0.6h7.3v6.5H11.1L14.1,2.6z M11.6,23.4
	L11.6,23.4c-0.9,0-1.7-0.3-2.3-1c-0.6-0.6-1-1.4-1-2.3c0-1.8,1.5-3.3,3.3-3.3s3.3,1.5,3.3,3.3S13.4,23.4,11.6,23.4z M41.4,23.4
	L41.4,23.4c-0.9,0-1.7-0.3-2.3-1c-0.6-0.6-1-1.4-1-2.3c0-1.8,1.5-3.3,3.3-3.3s3.3,1.5,3.3,3.3S43.2,23.4,41.4,23.4z M48.9,18
	c0,0.6-0.5,1.1-1.1,1.1h-1.2c-0.5-2.4-2.6-4.3-5.2-4.3c-2.6,0-4.7,1.8-5.2,4.3H16.8c-0.5-2.4-2.6-4.3-5.2-4.3s-4.7,1.8-5.2,4.3H4.1
	v-6.4c0-1.2,1-2.2,2.2-2.2h3.2c0,0,0,0,0,0h28.7c0,0,0,0,0,0h8.5c1.2,0,2.2,1,2.2,2.2V18z"/>
</svg>
