<?xml version="1.0" encoding="utf-8"?>
<!-- Generator: Adobe Illustrator 26.2.1, SVG Export Plug-In . SVG Version: 6.00 Build 0)  -->
<svg version="1.1" id="Layer_1" xmlns="http://www.w3.org/2000/svg" xmlns:xlink="http://www.w3.org/1999/xlink" x="0px" y="0px"
	 viewBox="0 0 29.2 29.2" style="enable-background:new 0 0 29.2 29.2;" xml:space="preserve">
<style type="text/css">
	.st0{fill:#FEA543;}
</style>
<g>
	<path class="st0" d="M21.8,21.5c0.2,0.5,0.8,0.8,1.3,0.6c0.5-0.2,0.8-0.8,0.6-1.3l-3.1-8.4c-0.1-0.4-0.4-0.7-0.8-0.9
		c-0.4-0.2-0.8-0.2-1.2,0c-0.3,0.1-0.6,0.3-0.8,0.6l-3.3,5l-1.6-1.9c-0.3-0.3-0.7-0.5-1.1-0.6c-0.4,0-0.8,0.1-1.2,0.4
		c-0.1,0.1-0.3,0.3-0.3,0.4l-3.1,5.2C6.9,21.1,7,21.7,7.5,22c0.2,0.1,0.3,0.1,0.5,0.1c0.3,0,0.7-0.2,0.9-0.5l2.8-4.7l2.1,2.5
		c0.2,0.2,0.5,0.4,0.8,0.4c0.3,0,0.6-0.2,0.8-0.4l3.6-5.5L21.8,21.5z"/>
	<path class="st0" d="M7,8.7c0,1.5,1.2,2.8,2.8,2.8s2.8-1.2,2.8-2.8s-1.2-2.8-2.8-2.8S7,7.2,7,8.7z M10.5,8.7c0,0.4-0.3,0.8-0.8,0.8
		S9,9.1,9,8.7s0.3-0.8,0.8-0.8S10.5,8.3,10.5,8.7z"/>
	<path class="st0" d="M27,0h-7.1c-0.6,0-1,0.4-1,1s0.4,1,1,1H27c0.1,0,0.2,0.1,0.2,0.2v4.7c0,0.6,0.4,1,1,1s1-0.4,1-1V2.2
		C29.2,1,28.2,0,27,0z"/>
	<path class="st0" d="M1,7.9c0.6,0,1-0.4,1-1V2.2C2,2.1,2.1,2,2.2,2h7.1c0.6,0,1-0.4,1-1s-0.4-1-1-1H2.2C1,0,0,1,0,2.2v4.7
		C0,7.5,0.4,7.9,1,7.9z"/>
	<path class="st0" d="M28.2,21.3c-0.6,0-1,0.4-1,1V27c0,0.1-0.1,0.2-0.2,0.2h-7.1c-0.6,0-1,0.4-1,1s0.4,1,1,1H27
		c1.2,0,2.2-1,2.2-2.2v-4.7C29.2,21.7,28.8,21.3,28.2,21.3z"/>
	<path class="st0" d="M9.3,27.2H2.2C2.1,27.2,2,27.1,2,27v-4.7c0-0.6-0.4-1-1-1s-1,0.4-1,1V27c0,1.2,1,2.2,2.2,2.2h7.1
		c0.6,0,1-0.4,1-1S9.8,27.2,9.3,27.2z"/>
</g>
</svg>
