<?xml version="1.0" encoding="utf-8"?>
<!-- Generator: Adobe Illustrator 26.2.1, SVG Export Plug-In . SVG Version: 6.00 Build 0)  -->
<svg version="1.1" id="Layer_1" xmlns="http://www.w3.org/2000/svg" xmlns:xlink="http://www.w3.org/1999/xlink" x="0px" y="0px"
	 viewBox="0 0 45 28" style="enable-background:new 0 0 45 28;" xml:space="preserve">
<style type="text/css">
	.st0{fill:#FEA543;}
</style>
<g>
	<path class="st0" d="M44,0H1C0.4,0,0,0.4,0,1v26c0,0.6,0.4,1,1,1h43c0.6,0,1-0.4,1-1V1C45,0.4,44.6,0,44,0z M43,26H2V2h41V26z"/>
	<polygon class="st0" points="4.1,11.4 4.1,12.6 4.1,13.8 4.1,15 4.1,16.2 4.1,17.4 4.1,18.6 4.1,19.8 4.1,21.1 4.1,22.3 4.1,23.5 
		6.2,23.5 6.2,22.3 6.2,21.1 6.2,19.8 6.2,18.6 6.2,17.4 6.2,16.2 6.2,15 6.2,13.8 6.2,12.6 6.2,11.4 6.2,10.2 4.1,10.2 	"/>
	<polygon class="st0" points="6.5,11.4 6.5,12.6 6.5,13.8 6.5,15 6.5,16.2 6.5,17.4 6.5,18.6 6.5,19.8 6.5,21.1 6.5,22.3 6.5,23.5 
		6.8,23.5 6.8,22.3 6.8,21.1 6.8,19.8 6.8,18.6 6.8,17.4 6.8,16.2 6.8,15 6.8,13.8 6.8,12.6 6.8,11.4 6.8,10.2 6.5,10.2 	"/>
	<polygon class="st0" points="7,11.4 7,12.6 7,13.8 7,15 7,16.2 7,17.4 7,18.6 7,19.8 7,21.1 7,22.3 7,23.5 7.3,23.5 7.3,22.3 
		7.3,21.1 7.3,19.8 7.3,18.6 7.3,17.4 7.3,16.2 7.3,15 7.3,13.8 7.3,12.6 7.3,11.4 7.3,10.2 7,10.2 	"/>
	<polygon class="st0" points="7.6,11.4 7.6,12.6 7.6,13.8 7.6,15 7.6,16.2 7.6,17.4 7.6,18.6 7.6,19.8 7.6,21.1 7.6,22.3 7.6,23.5 
		7.8,23.5 7.8,22.3 7.8,21.1 7.8,19.8 7.8,18.6 7.8,17.4 7.8,16.2 7.8,15 7.8,13.8 7.8,12.6 7.8,11.4 7.8,10.2 7.6,10.2 	"/>
	<rect x="10.3" y="10.2" class="st0" width="0.3" height="1.2"/>
	<rect x="14.6" y="10.2" class="st0" width="0.3" height="1.2"/>
	<rect x="20.2" y="10.2" class="st0" width="0.3" height="1.2"/>
	<path class="st0" d="M22.1,10.2h-0.8v1.2h-0.8v1.2v1.2h0.3V15h-0.3v1.2h0.3v1.2H21v1.2h-0.5v-1.2v-1.2h-0.3v1.2h-0.3v1.2h-0.3v-1.2
		h0.3v-1.2h-0.5v1.2h-0.3v1.2h0.3v1.2h-0.3v1.2h-0.5v1.2h-0.3v-1.2v-1.2h-0.3v-1.2h0.3v-1.2v-1.2h0.5V15h-0.5v-1.2h-0.3v-1.2h0.5
		v1.2h0.5V15v1.2h0.3V15h0.3v-1.2h0.3v-1.2h0.3v-1.2h-0.3v-1.2h-0.3v1.2h-0.5v1.2h-0.3v-1.2h-0.3v-1.2h-0.8v1.2v1.2v1.2V15v1.2v1.2
		v1.2v1.2v1.2v1.2v1.2h1.1v-1.2h0.8v-1.2h0.5v-1.2h0.5v1.2h-0.5v1.2h0.3v1.2H21v-1.2v-1.2v-1.2h0v-1.2h0.3v1.2h0.3v1.2h0.3v1.2v1.2
		h0.3v-1.2v-1.2h0v-1.2v-1.2h-0.5v-1.2h0.3v-1.2V15h0.3v-1.2v-1.2h0v-1.2h0V10.2z M21.8,12.6h-0.3v1.2V15h-0.3v1.2H21V15h0.3v-1.2
		v-1.2h0.3v-1.2h0.3V12.6z"/>
	<rect x="23.2" y="10.2" class="st0" width="0.3" height="1.2"/>
	<polygon class="st0" points="36.1,11.4 36.1,12.6 36.1,13.8 36.1,15 36.1,16.2 36.1,17.4 36.1,18.6 36.1,19.8 36.1,21.1 36.1,22.3 
		36.1,23.5 38,23.5 38,22.3 38,21.1 38,19.8 38,18.6 38,17.4 38,16.2 38,15 38,13.8 38,12.6 38,11.4 38,10.2 36.1,10.2 	"/>
	<polygon class="st0" points="38.2,11.4 38.2,12.6 38.2,13.8 38.2,15 38.2,16.2 38.2,17.4 38.2,18.6 38.2,19.8 38.2,21.1 38.2,22.3 
		38.2,23.5 38.5,23.5 38.5,22.3 38.5,21.1 38.5,19.8 38.5,18.6 38.5,17.4 38.5,16.2 38.5,15 38.5,13.8 38.5,12.6 38.5,11.4 
		38.5,10.2 38.2,10.2 	"/>
	<polygon class="st0" points="39.3,11.4 39.3,12.6 39.3,13.8 39.3,15 39.3,16.2 39.3,17.4 39.3,18.6 39.3,19.8 39.3,21.1 39.3,22.3 
		39.3,23.5 39.6,23.5 39.6,22.3 39.6,21.1 39.6,19.8 39.6,18.6 39.6,17.4 39.6,16.2 39.6,15 39.6,13.8 39.6,12.6 39.6,11.4 
		39.6,10.2 39.3,10.2 	"/>
	<polygon class="st0" points="39.9,11.4 39.9,12.6 39.9,13.8 39.9,15 39.9,16.2 39.9,17.4 39.9,18.6 39.9,19.8 39.9,21.1 39.9,22.3 
		39.9,23.5 40.1,23.5 40.1,22.3 40.1,21.1 40.1,19.8 40.1,18.6 40.1,17.4 40.1,16.2 40.1,15 40.1,13.8 40.1,12.6 40.1,11.4 
		40.1,10.2 39.9,10.2 	"/>
	<polygon class="st0" points="40.7,11.4 40.7,12.6 40.7,13.8 40.7,15 40.7,16.2 40.7,17.4 40.7,18.6 40.7,19.8 40.7,21.1 40.7,22.3 
		40.7,23.5 40.9,23.5 40.9,22.3 40.9,21.1 40.9,19.8 40.9,18.6 40.9,17.4 40.9,16.2 40.9,15 40.9,13.8 40.9,12.6 40.9,11.4 
		40.9,10.2 40.7,10.2 	"/>
	<rect x="10.5" y="11.4" class="st0" width="0.3" height="1.2"/>
	<path class="st0" d="M12.1,12.6h-0.8v-1.2h0.5v-1.2h-0.8v1.2v1.2h-0.3v1.2h-0.5v-1.2v-1.2H10v-1.2H9.7v1.2H9.4v-1.2H8.6v1.2v1.2
		v1.2V15v1.2v1.2v1.2v1.2v1.2v1.2v1.2h0.8v-1.2v-1.2v-1.2H10v-1.2H9.4v-1.2h0.3v-1.2H9.4V15v-1.2H9.2V15H8.9v-1.2h0.3v-1.2h0.3v1.2
		h0.3v-1.2H10v1.2H9.7V15v1.2H10V15h0.3v1.2h0.3v1.2h-0.3v-1.2H10v1.2v1.2h0.3v1.2H10v1.2h0.3v1.2h0.3v1.2h0.8v-1.2h-0.5v-1.2h-0.3
		v-1.2v-1.2h0.3v-1.2h0.5v1.2h0.3v1.2h-0.3v-1.2h-0.3v1.2v1.2h1.1v1.2v1.2h0.5v-1.2v-1.2h-0.3v-1.2h-0.3v-1.2v-1.2h-0.5v-1.2h-0.5
		V15v-1.2h0.3V15h0.8v1.2v1.2h0.3v-1.2h0.3V15h0v-1.2h-0.5L12.1,12.6h0.8v-1.2h-0.8V12.6z M9.2,21.1v1.2H8.9v-1.2v-1.2h0.3V21.1z
		 M9.2,18.6H8.9v-1.2h0.3V18.6z"/>
	<polygon class="st0" points="25.9,12.6 26.1,12.6 26.1,11.4 26.1,10.2 25.6,10.2 25.6,11.4 25.9,11.4 	"/>
	<rect x="29.1" y="11.4" class="st0" width="0.3" height="1.2"/>
	<rect x="33.7" y="11.4" class="st0" width="0.3" height="1.2"/>
	<polygon class="st0" points="35,11.4 34.7,11.4 34.7,10.2 33.9,10.2 33.9,11.4 34.5,11.4 34.5,12.6 34.2,12.6 34.2,13.8 34.2,15 
		34.5,15 34.5,16.2 34.7,16.2 34.7,15 35.6,15 35.6,13.8 35.8,13.8 35.8,12.6 35,12.6 	"/>
	<rect x="25.6" y="12.6" class="st0" width="0.3" height="1.2"/>
	<polygon class="st0" points="30.2,13.8 30.4,13.8 30.4,12.6 31,12.6 31,11.4 31,10.2 30.4,10.2 30.4,11.4 30.2,11.4 30.2,10.2 
		29.9,10.2 29.9,11.4 29.9,12.6 30.2,12.6 	"/>
	<polygon class="st0" points="26.4,15 26.4,16.2 26.7,16.2 26.7,15 26.7,13.8 26.4,13.8 	"/>
	<polygon class="st0" points="27.5,13.8 27.2,13.8 27.2,12.6 27.2,11.4 27.5,11.4 27.5,10.2 26.9,10.2 26.9,11.4 26.9,12.6 
		26.9,13.8 26.9,15 26.9,16.2 26.9,17.4 26.9,18.6 26.9,19.8 26.9,21.1 26.9,22.3 26.9,23.5 27.7,23.5 27.7,22.3 27.5,22.3 
		27.5,21.1 27.5,19.8 27.7,19.8 27.7,18.6 27.2,18.6 27.2,17.4 27.2,16.2 27.7,16.2 27.7,15 27.5,15 	"/>
	<polygon class="st0" points="29.1,13.8 29.1,15 29.9,15 29.9,13.8 29.9,12.6 29.4,12.6 29.4,13.8 	"/>
	<rect x="17.3" y="15" class="st0" width="0.3" height="1.2"/>
	<polygon class="st0" points="24.2,15 24.2,13.8 24.8,13.8 24.8,15 25.3,15 25.3,13.8 25.3,12.6 25.6,12.6 25.6,11.4 24.8,11.4 
		24.8,12.6 24.5,12.6 24.5,11.4 24.5,11.4 24.5,10.2 24,10.2 24,11.4 24.2,11.4 24.2,12.6 24,12.6 24,13.8 23.7,13.8 23.7,12.6 
		23.4,12.6 23.4,13.8 23.4,15 24,15 24,16.2 24.2,16.2 	"/>
	<rect x="29.9" y="15" class="st0" width="0.5" height="1.2"/>
	<polygon class="st0" points="31,16.2 31,17.4 31.2,17.4 31.2,16.2 31.2,15 31,15 	"/>
	<rect x="32.3" y="15" class="st0" width="0.3" height="1.2"/>
	<path class="st0" d="M16.2,17.4v-1.2h-0.3V15h-0.3v-1.2h-0.3v-1.2h0.8v1.2V15v1.2h0.3V15h0.8v-1.2h0v-1.2h0v-1.2H17v-1.2h-1.1v1.2
		h-0.3v-1.2h-0.3v1.2h-0.5v1.2h0.3v1.2V15v1.2h-0.3V15h-0.3v-1.2h0.3v-1.2h-0.3v-1.2h-0.3v1.2h-0.5v-1.2h0.5v-1.2h-1.1v1.2v1.2v1.2
		V15v1.2v1.2v1.2v1.2v1.2v1.2v1.2h0.3v-1.2h0.3v1.2h0.8v-1.2h0.5v-1.2h-0.3v-1.2H14v-1.2h-0.3v-1.2h-0.3v-1.2H14v1.2v1.2h0.8v-1.2
		h0.5v-1.2h0.3v1.2h-0.3v1.2v1.2v1.2h0.3v-1.2v-1.2h0.3v-1.2H16.2z M17,12.6v1.2h-0.3v-1.2H17z M16.4,11.4v1.2h-0.3v-1.2H16.4z
		 M14.3,21.1v1.2H14v-1.2H14.3z M14,13.8h0.3V15H14V13.8z"/>
	<rect x="16.4" y="16.2" class="st0" width="0.3" height="1.2"/>
	<polygon class="st0" points="22.6,16.2 22.9,16.2 22.9,15 22.9,13.8 23.2,13.8 23.2,12.6 22.9,12.6 22.9,11.4 22.6,11.4 22.6,10.2 
		22.4,10.2 22.4,11.4 22.4,12.6 22.4,13.8 22.4,15 22.4,16.2 22.4,17.4 22.4,18.6 22.4,19.8 22.4,21.1 22.4,22.3 22.4,23.5 
		22.6,23.5 22.6,22.3 22.6,21.1 22.9,21.1 22.9,19.8 22.6,19.8 22.6,18.6 22.9,18.6 22.9,17.4 22.6,17.4 	"/>
	<rect x="24.5" y="16.2" class="st0" width="0.3" height="1.2"/>
	<polygon class="st0" points="26.1,16.2 26.1,15 25.3,15 25.3,16.2 25.9,16.2 25.9,17.4 25.9,18.6 25.6,18.6 25.6,19.8 25.6,21.1 
		25.3,21.1 25.3,22.3 25.1,22.3 25.1,21.1 25.1,21.1 25.1,19.8 25.1,18.6 24,18.6 24,17.4 24,16.2 22.9,16.2 22.9,17.4 23.7,17.4 
		23.7,18.6 23.4,18.6 23.4,19.8 23.7,19.8 23.7,21.1 24,21.1 24,22.3 24.2,22.3 24.2,23.5 25.6,23.5 25.6,22.3 26.1,22.3 26.1,23.5 
		26.7,23.5 26.7,22.3 26.4,22.3 26.4,21.1 25.9,21.1 25.9,19.8 26.4,19.8 26.4,18.6 26.7,18.6 26.7,17.4 26.1,17.4 	"/>
	<rect x="32.6" y="16.2" class="st0" width="0.3" height="1.2"/>
	<rect x="17" y="17.4" class="st0" width="0.3" height="1.2"/>
	<rect x="25.1" y="17.4" class="st0" width="0.5" height="1.2"/>
	<polygon class="st0" points="28.8,17.4 29.1,17.4 29.1,16.2 28.6,16.2 28.6,15 28.8,15 28.8,13.8 29.1,13.8 29.1,12.6 28.8,12.6 
		28.8,11.4 28.6,11.4 28.6,10.2 28.3,10.2 28.3,11.4 27.7,11.4 27.7,12.6 27.7,13.8 27.7,15 28,15 28,13.8 28.3,13.8 28.3,15 
		28.3,16.2 28,16.2 28,17.4 28.6,17.4 28.6,18.6 28.8,18.6 	"/>
	<rect x="30.2" y="17.4" class="st0" width="0.3" height="1.2"/>
	<path class="st0" d="M34.5,17.4v-1.2h-0.8V15h0.3v-1.2h-0.5v-1.2v-1.2v-1.2h-0.3v1.2v1.2v1.2h-0.3v-1.2h0v-1.2h0v-1.2h-0.3v1.2
		h-0.3v-1.2h-0.8v1.2v1.2v1.2V15v1.2v1.2v1.2v1.2v1.2v1.2v1.2h0.5v-1.2h-0.3v-1.2v-1.2h0.3v-1.2h-0.3v-1.2h0.3v1.2h0.3v-1.2v-1.2
		h-0.3V15h-0.3v-1.2h0.3V15h0.3v-1.2v-1.2h0.3v1.2V15h0.3v1.2h0.3v1.2h-0.3v1.2v1.2v1.2h0.3v1.2v1.2h0.8v-1.2h-0.3v-1.2h-0.3v-1.2
		h1.1v-1.2h0.3v1.2h-0.3v1.2H35v1.2h0.5v-1.2h0.3v-1.2h0v-1.2H35v-1.2v-1.2h-0.3v1.2H34.5z M33.7,18.6v-1.2h0.5v1.2H33.7z"/>
	<polygon class="st0" points="17.3,19.8 17.3,21.1 17.5,21.1 17.5,19.8 17.5,18.6 17.3,18.6 	"/>
	<rect x="18.6" y="18.6" class="st0" width="0.3" height="1.2"/>
	<rect x="22.9" y="18.6" class="st0" width="0.3" height="1.2"/>
	<polygon class="st0" points="28.6,18.6 28.3,18.6 28.3,19.8 28.3,21.1 28.6,21.1 28.6,22.3 28.8,22.3 28.8,23.5 29.1,23.5 
		29.1,22.3 29.1,21.1 29.6,21.1 29.6,19.8 28.6,19.8 	"/>
	<polygon class="st0" points="29.9,18.6 29.9,17.4 29.9,16.2 29.6,16.2 29.6,17.4 29.6,18.6 29.6,19.8 30.2,19.8 30.2,18.6 	"/>
	<rect x="30.7" y="18.6" class="st0" width="0.3" height="1.2"/>
	<rect x="32.3" y="18.6" class="st0" width="0.3" height="1.2"/>
	<rect x="26.4" y="19.8" class="st0" width="0.3" height="1.2"/>
	<rect x="30.2" y="19.8" class="st0" width="0.3" height="1.2"/>
	<polygon class="st0" points="31,21.1 31,22.3 31,23.5 31.2,23.5 31.2,22.3 31.2,21.1 31.2,19.8 31,19.8 	"/>
	<polygon class="st0" points="32.1,21.1 32.1,22.3 32.3,22.3 32.3,21.1 32.3,19.8 32.1,19.8 	"/>
	<polygon class="st0" points="16.2,21.1 16.4,21.1 16.4,19.8 16.4,18.6 15.9,18.6 15.9,19.8 15.9,21.1 15.9,22.3 15.1,22.3 
		15.1,23.5 16.7,23.5 16.7,22.3 16.2,22.3 	"/>
	<rect x="17" y="21.1" class="st0" width="0.3" height="1.2"/>
	<rect x="23.4" y="21.1" class="st0" width="0.3" height="1.2"/>
	<rect x="29.9" y="21.1" class="st0" width="0.3" height="1.2"/>
	<rect x="9.7" y="22.3" class="st0" width="0.3" height="1.2"/>
	<rect x="17.3" y="22.3" class="st0" width="0.3" height="1.2"/>
	<rect x="19.7" y="22.3" class="st0" width="0.5" height="1.2"/>
	<rect x="23.7" y="22.3" class="st0" width="0.3" height="1.2"/>
	<rect x="30.2" y="22.3" class="st0" width="0.5" height="1.2"/>
	<rect x="32.3" y="22.3" class="st0" width="0.3" height="1.2"/>
	<rect x="34.5" y="22.3" class="st0" width="0.3" height="1.2"/>
	<rect x="4" y="5.5" class="st0" width="37" height="2"/>
</g>
</svg>
