<svg xmlns="http://www.w3.org/2000/svg" width="24" height="24" viewBox="0 0 24 24">
  <g transform="translate(-319 -816.551)">
    <g>
      <g id="conversation-chat-2">
        <path
          d="M333.5,817.051h-10a4,4,0,0,0-4,4v5a4,4,0,0,0,4,4h1v4l4.5-4h4.5a4,4,0,0,0,4-4v-5A4,4,0,0,0,333.5,817.051Z"
          fill="none"
          stroke="#fff"
          stroke-linecap="round"
          stroke-linejoin="round"
          stroke-width="1"
        />
        <path
          d="M330.5,833.051v1.5a2.5,2.5,0,0,0,2.5,2.5h2.5l3,3v-3H340a2.5,2.5,0,0,0,2.5-2.5v-3a2.5,2.5,0,0,0-2.5-2.5h-.5"
          fill="none"
          stroke="#fff"
          stroke-linecap="round"
          stroke-linejoin="round"
          stroke-width="1"
        />
      </g>
    </g>
  </g>
</svg>
