<svg xmlns="http://www.w3.org/2000/svg" width="27.001" height="27.001" viewBox="0 0 27.001 27.001">
  <g id="Music-Audio_Playlists_playlist-check" data-name="Music-Audio / Playlists / playlist-check" transform="translate(-338.504 -1922.614)">
    <g id="Group_168" data-name="Group 168" transform="translate(339.004 1923.114)">
      <g id="playlist-check">
        <path id="Shape_1158" data-name="Shape 1158" d="M359.353,1935.549v-11.3a1.13,1.13,0,0,0-1.13-1.131H340.134a1.129,1.129,0,0,0-1.13,1.131v18.088a1.13,1.13,0,0,0,1.13,1.131h11.3" transform="translate(-339.004 -1923.114)" fill="none" stroke="#ccc" stroke-linecap="round" stroke-linejoin="round" stroke-width="1"/>
        <path id="Oval_195" data-name="Oval 195" d="M350.7,1936.506a1.7,1.7,0,1,0-1.7-1.7A1.7,1.7,0,0,0,350.7,1936.506Z" transform="translate(-337.699 -1921.809)" fill="none" stroke="#ccc" stroke-linecap="round" stroke-linejoin="round" stroke-width="1"/>
        <path id="Oval_196" data-name="Oval 196" d="M343.7,1937.506a1.7,1.7,0,1,0-1.7-1.7A1.7,1.7,0,0,0,343.7,1937.506Z" transform="translate(-338.612 -1921.679)" fill="none" stroke="#ccc" stroke-linecap="round" stroke-linejoin="round" stroke-width="1"/>
        <path id="Shape_1159" data-name="Shape 1159" d="M345,1936.685v-6.5a1.131,1.131,0,0,1,.82-1.086l5.652-1.615a1.13,1.13,0,0,1,1.441,1.087v6.98" transform="translate(-338.221 -1922.549)" fill="none" stroke="#ccc" stroke-linecap="round" stroke-linejoin="round" stroke-width="1"/>
        <path id="Oval_197" data-name="Oval 197" d="M357.656,1947.419a5.652,5.652,0,1,0-5.652-5.653A5.653,5.653,0,0,0,357.656,1947.419Z" transform="translate(-337.308 -1921.418)" fill="#fe8e14" stroke="#fe8e14" stroke-linecap="round" stroke-linejoin="round" stroke-width="1"/>
        <path id="Shape_1160" data-name="Shape 1160" d="M355,1941.875l1.224,1.224a.567.567,0,0,0,.859-.071l2.438-3.414" transform="translate(-336.916 -1920.961)" fill="none" stroke="#fff" stroke-linecap="round" stroke-linejoin="round" stroke-width="1"/>
      </g>
    </g>
  </g>
</svg>
