<svg xmlns="http://www.w3.org/2000/svg" width="41.469" height="41.469" viewBox="0 0 41.469 41.469">
  <g id="Music-Audio_Playlists_playlist-check" data-name="Music-Audio / Playlists / playlist-check" transform="translate(-338.004 -1922.114)">
    <g id="Group_168" data-name="Group 168" transform="translate(339.004 1923.114)">
      <g id="playlist-check">
        <path id="Shape_1158" data-name="Shape 1158" d="M369.893,1941.991v-17.16a1.716,1.716,0,0,0-1.716-1.716H340.72A1.715,1.715,0,0,0,339,1924.83v27.457A1.716,1.716,0,0,0,340.72,1954h17.161" transform="translate(-339.004 -1923.114)" fill="none" stroke="#ccc" stroke-linecap="round" stroke-linejoin="round" stroke-width="2"/>
        <path id="Oval_195" data-name="Oval 195" d="M351.578,1938.262a2.574,2.574,0,1,0-2.574-2.574A2.575,2.575,0,0,0,351.578,1938.262Z" transform="translate(-331.843 -1915.953)" fill="none" stroke="#ccc" stroke-linecap="round" stroke-linejoin="round" stroke-width="2"/>
        <path id="Oval_196" data-name="Oval 196" d="M344.578,1939.262a2.574,2.574,0,1,0-2.574-2.574A2.575,2.575,0,0,0,344.578,1939.262Z" transform="translate(-336.856 -1915.238)" fill="none" stroke="#ccc" stroke-linecap="round" stroke-linejoin="round" stroke-width="2"/>
        <path id="Shape_1159" data-name="Shape 1159" d="M345,1941.471v-9.86a1.716,1.716,0,0,1,1.244-1.649l8.58-2.452a1.716,1.716,0,0,1,2.188,1.651v10.6" transform="translate(-334.708 -1920.014)" fill="none" stroke="#ccc" stroke-linecap="round" stroke-linejoin="round" stroke-width="2"/>
        <path id="Oval_197" data-name="Oval 197" d="M360.584,1953.275a8.58,8.58,0,1,0-8.58-8.581A8.581,8.581,0,0,0,360.584,1953.275Z" transform="translate(-329.695 -1913.805)" fill="#fe8e14" stroke="#fe8e14" stroke-linecap="round" stroke-linejoin="round" stroke-width="2"/>
        <path id="Shape_1160" data-name="Shape 1160" d="M355,1943.046l1.859,1.859a.86.86,0,0,0,1.3-.108l3.7-5.182" transform="translate(-327.547 -1911.299)" fill="none" stroke="#fff" stroke-linecap="round" stroke-linejoin="round" stroke-width="2"/>
      </g>
    </g>
  </g>
</svg>
