<svg xmlns="http://www.w3.org/2000/svg" width="23.005" height="23.005" viewBox="0 0 23.005 23.005">
  <g id="Music-Audio_Playlists_playlist" data-name="Music-Audio / Playlists / playlist" transform="translate(-532.82 -2020.614)">
    <g id="Group_192" data-name="Group 192" transform="translate(531.004 2021.114)">
      <g id="playlist">
        <path id="Rectangle-path_82" data-name="Rectangle-path 82" d="M533,2022.272a1.157,1.157,0,0,1,1.158-1.158h19.689a1.158,1.158,0,0,1,1.158,1.158v19.689a1.159,1.159,0,0,1-1.158,1.158H534.162a1.158,1.158,0,0,1-1.158-1.158Z" transform="translate(-530.688 -2021.114)" fill="none" stroke="#ccc" stroke-linecap="round" stroke-linejoin="round" stroke-width="1"/>
        <path id="Oval_258" data-name="Oval 258" d="M545.741,2034.589a1.737,1.737,0,1,0-1.737-1.737A1.738,1.738,0,0,0,545.741,2034.589Z" transform="translate(-528.948 -2019.533)" fill="none" stroke="#ccc" stroke-linecap="round" stroke-linejoin="round" stroke-width="1"/>
        <path id="Oval_259" data-name="Oval 259" d="M538.741,2035.589a1.737,1.737,0,1,0-1.737-1.737A1.738,1.738,0,0,0,538.741,2035.589Z" transform="translate(-530.055 -2019.375)" fill="none" stroke="#ccc" stroke-linecap="round" stroke-linejoin="round" stroke-width="1"/>
        <path id="Shape_1263" data-name="Shape 1263" d="M540,2034.911v-6.655a1.158,1.158,0,0,1,.84-1.113l5.791-1.655a1.158,1.158,0,0,1,1.477,1.114v7.151" transform="translate(-529.581 -2020.429)" fill="none" stroke="#ccc" stroke-linecap="round" stroke-linejoin="round" stroke-width="1"/>
      </g>
    </g>
  </g>
</svg>
