<svg xmlns="http://www.w3.org/2000/svg" width="34" height="34" viewBox="0 0 34 34">
  <g id="Images-Photography_Image-Files_image-file-add" data-name="Images-Photography / Image-Files / image-file-add" transform="translate(-376.074 -2192.76)">
    <g id="Group_184" data-name="Group 184" transform="translate(377.074 2193.76)">
      <g id="image-file-add">
        <path id="Oval_118" data-name="Oval 118" d="M383.857,2204.325a2.782,2.782,0,1,0-2.783-2.782A2.782,2.782,0,0,0,383.857,2204.325Z" transform="translate(-375.509 -2191.804)" fill="none" stroke="#aaa" stroke-linecap="round" stroke-linejoin="round" stroke-width="2"/>
        <path id="Shape_876" data-name="Shape 876" d="M392.657,2204.907l-.863-1.38a.7.7,0,0,0-1.18,0l-3.672,5.874-1.5-2.4a.7.7,0,0,0-1.18,0l-4.193,6.709h6.956" transform="translate(-375.9 -2190.066)" fill="none" stroke="#aaa" stroke-linecap="round" stroke-linejoin="round" stroke-width="2"/>
        <path id="Shape_877" data-name="Shape 877" d="M390.987,2225.76H378.465a1.392,1.392,0,0,1-1.391-1.391v-29.217a1.392,1.392,0,0,1,1.391-1.391H396.96a1.394,1.394,0,0,1,.984.407l5.157,5.157a1.39,1.39,0,0,1,.408.984v5.973" transform="translate(-377.074 -2193.76)" fill="none" stroke="#aaa" stroke-linecap="round" stroke-linejoin="round" stroke-width="2"/>
        <path id="Oval_119" data-name="Oval 119" d="M396.422,2221.456a8.348,8.348,0,1,0-8.348-8.348A8.347,8.347,0,0,0,396.422,2221.456Z" transform="translate(-372.77 -2189.456)" fill="none" stroke="#aaa" stroke-linecap="round" stroke-linejoin="round" stroke-width="2"/>
        <path id="Shape_878" data-name="Shape 878" d="M394.074,2207.76v8.348" transform="translate(-370.422 -2188.282)" fill="none" stroke="#aaa" stroke-linecap="round" stroke-linejoin="round" stroke-width="2"/>
        <path id="Shape_879" data-name="Shape 879" d="M399.422,2210.76h-8.348" transform="translate(-371.596 -2187.108)" fill="none" stroke="#aaa" stroke-linecap="round" stroke-linejoin="round" stroke-width="2"/>
      </g>
    </g>
  </g>
</svg>
