<svg data-v-509bb99c="" viewBox="0 0 34 16.783" class="vinIcon invert"><g data-v-509bb99c="" transform="translate(-522 -549.5)"><g data-v-509bb99c="" transform="translate(522.5 550)"><g data-v-509bb99c=""><path data-v-509bb99c="" d="M542.37,562.739a2.87,2.87,0,1,0-2.87-2.87A2.869,2.869,0,0,0,542.37,562.739Z" transform="translate(-515.109 -546.957)" fill="none" stroke="#606060" stroke-linecap="round" stroke-linejoin="round" stroke-width="1"></path><path data-v-509bb99c="" d="M526.8,559h-4.3" transform="translate(-522.5 -546.087)" fill="none" stroke="#606060" stroke-linecap="round" stroke-linejoin="round" stroke-width="1"></path><path data-v-509bb99c="" d="M528.37,562.739a2.87,2.87,0,1,0-2.87-2.87A2.869,2.869,0,0,0,528.37,562.739Z" transform="translate(-521.196 -546.957)" fill="none" stroke="#606060" stroke-linecap="round" stroke-linejoin="round" stroke-width="1"></path><path data-v-509bb99c="" d="M543.848,559H529.5" transform="translate(-519.457 -546.087)" fill="none" stroke="#606060" stroke-linecap="round" stroke-linejoin="round" stroke-width="1"></path><path data-v-509bb99c="" d="M523.5,562.913v-5.022a2.153,2.153,0,0,1,2.152-2.152H527.8l2.474-4.946a1.433,1.433,0,0,1,1.283-.793h11.857a1.433,1.433,0,0,1,1.283.793l2.474,4.946h5.739a2.153,2.153,0,0,1,2.152,2.152v3.587a1.435,1.435,0,0,1-1.435,1.435H552.2" transform="translate(-522.065 -550)" fill="none" stroke="#606060" stroke-linecap="round" stroke-linejoin="round" stroke-width="1"></path><path data-v-509bb99c="" d="M545.87,554H526.5" transform="translate(-520.761 -548.261)" fill="none" stroke="#606060" stroke-linecap="round" stroke-linejoin="round" stroke-width="1"></path><path data-v-509bb99c="" d="M533,550v5.739" transform="translate(-517.935 -550)" fill="none" stroke="#606060" stroke-linecap="round" stroke-linejoin="round" stroke-width="1"></path></g></g></g></svg>